<svg xmlns="http://www.w3.org/2000/svg" width="760" height="494" viewBox="0 0 760 494" font-family="system-ui, sans-serif">
<rect width="760" height="494" fill="#fcfcfb" rx="6"/>
<text x="16" y="26" font-size="15" font-weight="600" fill="#0b0b0b">Buffer scanning — throughput vs java.util.regex</text>
<text x="16" y="44" font-size="11" fill="#52514e">2,000-record buffers, all capture groups extracted &#183; run 2026-09-04-0123-b81229148b-chain-phase1-polluted &#183; higher is better</text>
<line x1="170.0" y1="72" x2="170.0" y2="468" stroke="#f0efec" stroke-width="1"/>
<text x="170.0" y="482" font-size="10" fill="#52514e" text-anchor="middle">0&#215;</text>
<line x1="256.7" y1="72" x2="256.7" y2="468" stroke="#f0efec" stroke-width="1"/>
<text x="256.7" y="482" font-size="10" fill="#52514e" text-anchor="middle">1&#215;</text>
<line x1="343.4" y1="72" x2="343.4" y2="468" stroke="#f0efec" stroke-width="1"/>
<text x="343.4" y="482" font-size="10" fill="#52514e" text-anchor="middle">2&#215;</text>
<line x1="430.2" y1="72" x2="430.2" y2="468" stroke="#f0efec" stroke-width="1"/>
<text x="430.2" y="482" font-size="10" fill="#52514e" text-anchor="middle">3&#215;</text>
<line x1="516.9" y1="72" x2="516.9" y2="468" stroke="#f0efec" stroke-width="1"/>
<text x="516.9" y="482" font-size="10" fill="#52514e" text-anchor="middle">4&#215;</text>
<line x1="603.6" y1="72" x2="603.6" y2="468" stroke="#f0efec" stroke-width="1"/>
<text x="603.6" y="482" font-size="10" fill="#52514e" text-anchor="middle">5&#215;</text>
<line x1="690.3" y1="72" x2="690.3" y2="468" stroke="#f0efec" stroke-width="1"/>
<text x="690.3" y="482" font-size="10" fill="#52514e" text-anchor="middle">6&#215;</text>
<line x1="256.7" y1="70" x2="256.7" y2="468" stroke="#52514e" stroke-width="1.5" stroke-dasharray="4 3"/>
<text x="256.7" y="65" font-size="10" fill="#52514e" text-anchor="middle">java.util.regex</text>
<path d="M 170 80 h 496.0 a 4.0 4.0 0 0 1 4.0 4.0 v 6.0 a 4.0 4.0 0 0 1 -4.0 4.0 h -496.0 Z" fill="#2a78d6"/>
<text x="162" y="91" font-size="11" fill="#0b0b0b" text-anchor="end">CSV</text>
<text x="676.0" y="91" font-size="11" fill="#52514e">5.77&#215;</text>
<path d="M 170 104 h 418.4 a 4.0 4.0 0 0 1 4.0 4.0 v 6.0 a 4.0 4.0 0 0 1 -4.0 4.0 h -418.4 Z" fill="#2a78d6"/>
<text x="162" y="115" font-size="11" fill="#0b0b0b" text-anchor="end">QUOTED</text>
<text x="598.4" y="115" font-size="11" fill="#52514e">4.87&#215;</text>
<path d="M 170 128 h 383.9 a 4.0 4.0 0 0 1 4.0 4.0 v 6.0 a 4.0 4.0 0 0 1 -4.0 4.0 h -383.9 Z" fill="#2a78d6"/>
<text x="162" y="139" font-size="11" fill="#0b0b0b" text-anchor="end">WEBLOG</text>
<text x="563.9" y="139" font-size="11" fill="#52514e">4.47&#215;</text>
<path d="M 170 152 h 333.0 a 4.0 4.0 0 0 1 4.0 4.0 v 6.0 a 4.0 4.0 0 0 1 -4.0 4.0 h -333.0 Z" fill="#2a78d6"/>
<text x="162" y="163" font-size="11" fill="#0b0b0b" text-anchor="end">SYSLOG</text>
<text x="513.0" y="163" font-size="11" fill="#52514e">3.89&#215;</text>
<path d="M 170 176 h 318.4 a 4.0 4.0 0 0 1 4.0 4.0 v 6.0 a 4.0 4.0 0 0 1 -4.0 4.0 h -318.4 Z" fill="#2a78d6"/>
<text x="162" y="187" font-size="11" fill="#0b0b0b" text-anchor="end">DATETIME</text>
<text x="498.4" y="187" font-size="11" fill="#52514e">3.72&#215;</text>
<path d="M 170 200 h 277.2 a 4.0 4.0 0 0 1 4.0 4.0 v 6.0 a 4.0 4.0 0 0 1 -4.0 4.0 h -277.2 Z" fill="#2a78d6"/>
<text x="162" y="211" font-size="11" fill="#0b0b0b" text-anchor="end">ALTERNATION</text>
<text x="457.2" y="211" font-size="11" fill="#52514e">3.24&#215;</text>
<path d="M 170 224 h 269.3 a 4.0 4.0 0 0 1 4.0 4.0 v 6.0 a 4.0 4.0 0 0 1 -4.0 4.0 h -269.3 Z" fill="#2a78d6"/>
<text x="162" y="235" font-size="11" fill="#0b0b0b" text-anchor="end">LONG_RECORD</text>
<text x="449.3" y="235" font-size="11" fill="#52514e">3.15&#215;</text>
<path d="M 170 248 h 251.7 a 4.0 4.0 0 0 1 4.0 4.0 v 6.0 a 4.0 4.0 0 0 1 -4.0 4.0 h -251.7 Z" fill="#2a78d6"/>
<text x="162" y="259" font-size="11" fill="#0b0b0b" text-anchor="end">TIER1_ALTERNATION</text>
<text x="431.7" y="259" font-size="11" fill="#52514e">2.95&#215;</text>
<path d="M 170 272 h 240.5 a 4.0 4.0 0 0 1 4.0 4.0 v 6.0 a 4.0 4.0 0 0 1 -4.0 4.0 h -240.5 Z" fill="#2a78d6"/>
<text x="162" y="283" font-size="11" fill="#0b0b0b" text-anchor="end">SPARSE</text>
<text x="420.5" y="283" font-size="11" fill="#52514e">2.82&#215;</text>
<path d="M 170 296 h 228.5 a 4.0 4.0 0 0 1 4.0 4.0 v 6.0 a 4.0 4.0 0 0 1 -4.0 4.0 h -228.5 Z" fill="#2a78d6"/>
<text x="162" y="307" font-size="11" fill="#0b0b0b" text-anchor="end">FANCY_ATOMIC</text>
<text x="408.5" y="307" font-size="11" fill="#52514e">2.68&#215;</text>
<path d="M 170 320 h 187.3 a 4.0 4.0 0 0 1 4.0 4.0 v 6.0 a 4.0 4.0 0 0 1 -4.0 4.0 h -187.3 Z" fill="#2a78d6"/>
<text x="162" y="331" font-size="11" fill="#0b0b0b" text-anchor="end">UNICODE</text>
<text x="367.3" y="331" font-size="11" fill="#52514e">2.21&#215;</text>
<path d="M 170 344 h 175.4 a 4.0 4.0 0 0 1 4.0 4.0 v 6.0 a 4.0 4.0 0 0 1 -4.0 4.0 h -175.4 Z" fill="#2a78d6"/>
<text x="162" y="355" font-size="11" fill="#0b0b0b" text-anchor="end">NETWORK</text>
<text x="355.4" y="355" font-size="11" fill="#52514e">2.07&#215;</text>
<path d="M 170 368 h 169.3 a 4.0 4.0 0 0 1 4.0 4.0 v 6.0 a 4.0 4.0 0 0 1 -4.0 4.0 h -169.3 Z" fill="#2a78d6"/>
<text x="162" y="379" font-size="11" fill="#0b0b0b" text-anchor="end">FANCY_LOOKAHEAD</text>
<text x="349.3" y="379" font-size="11" fill="#52514e">2.00&#215;</text>
<path d="M 170 392 h 167.3 a 4.0 4.0 0 0 1 4.0 4.0 v 6.0 a 4.0 4.0 0 0 1 -4.0 4.0 h -167.3 Z" fill="#2a78d6"/>
<text x="162" y="403" font-size="11" fill="#0b0b0b" text-anchor="end">KEYVALUE</text>
<text x="347.3" y="403" font-size="11" fill="#52514e">1.98&#215;</text>
<path d="M 170 416 h 145.4 a 4.0 4.0 0 0 1 4.0 4.0 v 6.0 a 4.0 4.0 0 0 1 -4.0 4.0 h -145.4 Z" fill="#2a78d6"/>
<text x="162" y="427" font-size="11" fill="#0b0b0b" text-anchor="end">TIER1_GREEDY</text>
<text x="325.4" y="427" font-size="11" fill="#52514e">1.72&#215;</text>
<path d="M 170 440 h 126.3 a 4.0 4.0 0 0 1 4.0 4.0 v 6.0 a 4.0 4.0 0 0 1 -4.0 4.0 h -126.3 Z" fill="#2a78d6"/>
<text x="162" y="451" font-size="11" fill="#0b0b0b" text-anchor="end">FANCY_BACKREF</text>
<text x="306.3" y="451" font-size="11" fill="#52514e">1.50&#215;</text>
</svg>